<?xml version="1.0" encoding="UTF-8"?> <svg xmlns="http://www.w3.org/2000/svg" width="156" height="24" viewBox="0 0 156 24" fill="none"><path d="M5.32974 0.227907C1.76568 0.227907 0 2.01895 0 5.63361V18.5943C0 22.2089 1.76568 24 5.32974 24H15.2045V21.5576H5.78751C3.59676 21.5576 2.48503 20.4504 2.48503 18.2035V6.02438C2.48503 3.77743 3.59676 2.67024 5.78751 2.67024H15.2045V0.227907H5.32974Z" fill="white"></path><path d="M18.6503 7.03388V18.5617C18.6503 22.1763 20.416 24 23.98 24H29.5059C33.0373 24 34.8357 22.1763 34.8357 18.5617V7.03388H32.4814V18.1709C32.4814 20.483 31.337 21.6553 29.0809 21.6553H24.4051C22.1816 21.6553 21.0372 20.483 21.0372 18.1709V7.03388H18.6503Z" fill="white"></path><path d="M42.1365 7.00131C39.5207 7.00131 38.2128 8.27133 38.2128 10.7462V12.6675C38.2128 14.9796 39.488 16.1519 41.973 16.1519H48.8396C50.1802 16.1519 50.8341 16.7706 50.8341 18.0081V19.9294C50.8341 21.2971 50.0821 21.9484 48.5126 21.9484H38.3762V24H49.1338C51.8151 24 53.1557 22.7299 53.1557 20.2225V17.7476C53.1557 15.4355 51.9131 14.2632 49.4281 14.2632H42.5616C41.1883 14.2632 40.5343 13.6445 40.5343 12.407V11.0719C40.5343 9.73673 41.2537 9.05287 42.7251 9.05287H52.4036V7.00131H42.1365Z" fill="white"></path><path d="M58.584 1.46536V7.00131H55.3796V9.118H58.584V24H60.9709V9.118H64.6658V7.00131H60.9709V1.46536H58.584Z" fill="white"></path><path d="M72.4816 7.00131C68.9175 7.00131 67.1519 8.82492 67.1519 12.4396V18.5617C67.1519 22.1763 68.9175 24 72.4816 24H78.2691C81.8005 24 83.5989 22.1763 83.5989 18.5617V12.4396C83.5989 8.82492 81.8005 7.00131 78.2691 7.00131H72.4816ZM69.5388 12.8303C69.5388 10.5183 70.6832 9.37852 72.9394 9.37852H77.8113C80.0675 9.37852 81.2119 10.5183 81.2119 12.8303V18.1709C81.2119 20.483 80.0675 21.6553 77.8113 21.6553H72.9394C70.6832 21.6553 69.5388 20.483 69.5388 18.1709V12.8303Z" fill="white"></path><path d="M87.4976 7.00131V24H89.8518V9.34595H98.8764V24H101.165V9.34595H106.822C109.045 9.34595 110.157 10.5183 110.157 12.8303V24H112.544V12.4396C112.544 8.82492 110.778 7.00131 107.28 7.00131H87.4976Z" fill="white"></path><path d="M121.952 15.924L121.069 18.2035H132.023L134.377 24H137.156L127.216 0.227952H124.535L114.824 24H117.407L125.843 3.02849L131.107 15.924H121.952Z" fill="url(#paint0_linear_38_3)"></path><path d="M139.578 7.16418V24H141.965V7.16418H139.578ZM139.578 0V3.77748H141.965V0H139.578Z" fill="url(#paint1_linear_38_3)"></path><path d="M151.39 7.03392C147.826 7.03392 146.06 8.85753 146.06 12.4722V24H148.447V12.863C148.447 10.5509 149.591 9.37856 151.815 9.37856H156V7.03392H151.39Z" fill="url(#paint2_linear_38_3)"></path><defs><linearGradient id="paint0_linear_38_3" x1="165.305" y1="40.8856" x2="114.814" y2="-10.021" gradientUnits="userSpaceOnUse"><stop stop-color="#1484C3"></stop><stop offset="1" stop-color="#12A2F3"></stop></linearGradient><linearGradient id="paint1_linear_38_3" x1="165.305" y1="40.8856" x2="114.814" y2="-10.021" gradientUnits="userSpaceOnUse"><stop stop-color="#1484C3"></stop><stop offset="1" stop-color="#12A2F3"></stop></linearGradient><linearGradient id="paint2_linear_38_3" x1="165.305" y1="40.8856" x2="114.814" y2="-10.021" gradientUnits="userSpaceOnUse"><stop stop-color="#1484C3"></stop><stop offset="1" stop-color="#12A2F3"></stop></linearGradient></defs></svg> 