<?xml version="1.0" encoding="UTF-8"?> <svg xmlns="http://www.w3.org/2000/svg" width="96" height="25" viewBox="0 0 96 25" fill="none"><path d="M3.27984 0.139399C1.08657 0.139399 0 1.23467 0 3.44513V11.3709C0 13.5814 1.08657 14.6767 3.27984 14.6767H9.35661V13.1831H3.56155C2.21339 13.1831 1.52925 12.506 1.52925 11.132V3.6841C1.52925 2.31003 2.21339 1.63295 3.56155 1.63295H9.35661V0.139399H3.27984Z" fill="white"></path><path d="M11.4771 4.30143V11.351C11.4771 13.5615 12.5637 14.6767 14.7569 14.6767H18.1575C20.3307 14.6767 21.4373 13.5615 21.4373 11.351V4.30143H19.9886V11.112C19.9886 12.5259 19.2843 13.2428 17.8959 13.2428H15.0185C13.6502 13.2428 12.946 12.5259 12.946 11.112V4.30143H11.4771Z" fill="white"></path><path d="M25.9302 4.28152C24.3204 4.28152 23.5155 5.05817 23.5155 6.57164V7.74657C23.5155 9.16046 24.3003 9.87737 25.8295 9.87737H30.0551C30.8801 9.87737 31.2825 10.2557 31.2825 11.0125V12.1874C31.2825 13.0238 30.8197 13.4221 29.8539 13.4221H23.6162V14.6767H30.2362C31.8862 14.6767 32.7112 13.9 32.7112 12.3666V10.8532C32.7112 9.43926 31.9466 8.72235 30.4173 8.72235H26.1917C25.3466 8.72235 24.9442 8.34399 24.9442 7.58725V6.77078C24.9442 5.9543 25.3869 5.53611 26.2923 5.53611H32.2484V4.28152H25.9302Z" fill="white"></path><path d="M36.0517 0.896132V4.28152H34.0798V5.57593H36.0517V14.6767H37.5206V5.57593H39.7943V4.28152H37.5206V0.896132H36.0517Z" fill="white"></path><path d="M44.6041 4.28152C42.4108 4.28152 41.3242 5.39671 41.3242 7.60717V11.351C41.3242 13.5615 42.4108 14.6767 44.6041 14.6767H48.1656C50.3388 14.6767 51.4455 13.5615 51.4455 11.351V7.60717C51.4455 5.39671 50.3388 4.28152 48.1656 4.28152H44.6041ZM42.7931 7.84614C42.7931 6.43224 43.4974 5.73525 44.8858 5.73525H47.8839C49.2723 5.73525 49.9766 6.43224 49.9766 7.84614V11.112C49.9766 12.5259 49.2723 13.2428 47.8839 13.2428H44.8858C43.4974 13.2428 42.7931 12.5259 42.7931 11.112V7.84614Z" fill="white"></path><path d="M53.8447 4.28152V14.6767H55.2934V5.71533H60.847V14.6767H62.2555V5.71533H65.7366C67.1049 5.71533 67.789 6.43224 67.789 7.84614V14.6767H69.2579V7.60717C69.2579 5.39671 68.1713 4.28152 66.0183 4.28152H53.8447Z" fill="white"></path><path d="M75.0473 9.73797L74.504 11.132H81.2448L82.6936 14.6767H84.4039L78.2869 0.139399H76.6369L70.6608 14.6767H72.2504L77.4418 1.85201L80.6814 9.73797H75.0473Z" fill="#089AED"></path><path d="M85.894 4.38109V14.6767H87.3629V4.38109H85.894ZM85.894 0V2.31003H87.3629V0H85.894Z" fill="#089AED"></path><path d="M93.1628 4.30143C90.9696 4.30143 89.883 5.41662 89.883 7.62708V14.6767H91.3519V7.86605C91.3519 6.45215 92.0562 5.73525 93.4244 5.73525H96V4.30143H93.1628Z" fill="#089AED"></path><path d="M0 19.842V24.1371H0.44771V22.1366H2.62735V24.1371H3.07506V19.842H2.62735V21.7189H0.44771V19.842H0Z" fill="white"></path><path d="M3.51945 19.842L5.28083 24.1371H5.76978L7.49582 19.842H7.01865L5.52236 23.6016L4.02018 19.842H3.51945Z" fill="white"></path><path d="M8.26688 22.6779L8.10783 23.0898H10.0813L10.5054 24.1371H11.0062L9.21532 19.842H8.73226L6.98266 24.1371H7.44804L8.9679 20.348L9.91634 22.6779H8.26688Z" fill="white"></path><path d="M12.1255 19.842C11.4834 19.842 11.1653 20.1656 11.1653 20.8187V23.1604C11.1653 23.8135 11.4834 24.1371 12.1255 24.1371H13.9046V23.6958H12.208C11.8133 23.6958 11.613 23.4957 11.613 23.0898V20.8893C11.613 20.4833 11.8133 20.2832 12.208 20.2832H13.9046V19.842H12.1255Z" fill="white"></path><path d="M16.5361 21.0658C16.0648 21.0658 15.8292 21.2952 15.8292 21.7424V22.0895C15.8292 22.5073 16.0589 22.7191 16.5067 22.7191H17.7437C17.9853 22.7191 18.1031 22.8309 18.1031 23.0545V23.4016C18.1031 23.6487 17.9676 23.7664 17.6848 23.7664H15.8587V24.1371H17.7968C18.2798 24.1371 18.5213 23.9076 18.5213 23.4546V23.0074C18.5213 22.5897 18.2975 22.3778 17.8498 22.3778H16.6127C16.3653 22.3778 16.2475 22.266 16.2475 22.0425V21.8012C16.2475 21.56 16.3771 21.4364 16.6421 21.4364H18.3859V21.0658H16.5361Z" fill="white"></path><path d="M20.0472 21.0658C19.4051 21.0658 19.087 21.3953 19.087 22.0484V23.1545C19.087 23.8076 19.4051 24.1371 20.0472 24.1371H21.8498V23.7193H20.1002C19.7055 23.7193 19.5111 23.5193 19.5111 23.1133V22.0601C19.5111 21.6483 19.7114 21.4364 20.1179 21.4364H21.0486C21.3726 21.4364 21.5317 21.5953 21.5317 21.9071V22.0484C21.5317 22.319 21.3726 22.4543 21.0545 22.4543H19.7468V22.8015H21.1724C21.6908 22.8015 21.95 22.5779 21.95 22.1248V21.8777C21.95 21.3364 21.6731 21.0658 21.1252 21.0658H20.0472Z" fill="white"></path><path d="M23.5804 21.0717C22.9383 21.0717 22.6202 21.4011 22.6202 22.0542V24.1371H23.0502V22.1248C23.0502 21.7071 23.2564 21.4953 23.657 21.4953H24.411V21.0717H23.5804Z" fill="white"></path><path d="M24.7414 21.0658L26.22 24.1371H26.6854L28.1287 21.0658H27.681L26.4557 23.6958L25.2127 21.0658H24.7414Z" fill="white"></path><path d="M28.5571 21.0952V24.1371H28.9871V21.0952H28.5571ZM28.5571 19.8008V20.4833H28.9871V19.8008H28.5571Z" fill="white"></path><path d="M30.6439 21.0658C30.0018 21.0658 29.6837 21.3953 29.6837 22.0484V23.1545C29.6837 23.8076 30.0018 24.1371 30.6439 24.1371H32.0165V23.7134H30.7264C30.3199 23.7134 30.1137 23.5016 30.1137 23.0839V22.119C30.1137 21.7012 30.3199 21.4953 30.7264 21.4953H32.0165V21.0658H30.6439Z" fill="white"></path><path d="M33.5836 21.0658C32.9415 21.0658 32.6234 21.3953 32.6234 22.0484V23.1545C32.6234 23.8076 32.9415 24.1371 33.5836 24.1371H35.3862V23.7193H33.6366C33.242 23.7193 33.0476 23.5193 33.0476 23.1133V22.0601C33.0476 21.6483 33.2478 21.4364 33.6543 21.4364H34.5851C34.9091 21.4364 35.0681 21.5953 35.0681 21.9071V22.0484C35.0681 22.319 34.9091 22.4543 34.591 22.4543H33.2832V22.8015H34.7088C35.2272 22.8015 35.4864 22.5779 35.4864 22.1248V21.8777C35.4864 21.3364 35.2095 21.0658 34.6617 21.0658H33.5836Z" fill="white"></path><path d="M36.7516 21.0658C36.2803 21.0658 36.0447 21.2952 36.0447 21.7424V22.0895C36.0447 22.5073 36.2744 22.7191 36.7221 22.7191H37.9592C38.2008 22.7191 38.3186 22.8309 38.3186 23.0545V23.4016C38.3186 23.6487 38.1831 23.7664 37.9003 23.7664H36.0741V24.1371H38.0123C38.4953 24.1371 38.7368 23.9076 38.7368 23.4546V23.0074C38.7368 22.5897 38.513 22.3778 38.0653 22.3778H36.8282C36.5808 22.3778 36.4629 22.266 36.4629 22.0425V21.8012C36.4629 21.56 36.5925 21.4364 36.8576 21.4364H38.6014V21.0658H36.7516Z" fill="white"></path></svg> 